<?xml version="1.0" encoding="UTF-8"?>
<svg id="Camada_2" data-name="Camada 2" xmlns="http://www.w3.org/2000/svg" viewBox="0 0 860.67 861.49">
  <defs>
    <style>
      .cls-1 {
        fill: #16f4f3;
      }
    </style>
  </defs>
  <g id="Camada_1-2" data-name="Camada 1">
    <g>
      <g>
        <path class="cls-1" d="M325.65,0h30.65c23.48,8.3,38.35,11.24,58.26,34.33,32.42,33.36,34.47,87.1,6.46,125.34L158.25,422.09c-44.72,28.98-97.51,22.89-132.11-15.66-31.45-35.04-37.69-94.13-1.08-130.92L275.94,23.46c14.06-14.12,35.54-16.72,49.71-23.46Z"/>
        <path class="cls-1" d="M169.05,551.99l242.37-242.74c36.68-36.73,95.48-37.66,133.65-5.2,43,36.58,51.62,102.01,10,143.7l-244.16,244.54c-39.3,39.36-101.72,36.55-138.68.1-38.14-37.61-43.83-99.68-3.18-140.4Z"/>
      </g>
      <g>
        <path class="cls-1" d="M860.67,543.39c-6.84,14.06-10.62,31.41-23.28,44.03l-249.38,248.54c-28.19,28.1-70.56,31.89-106.21,16.85-31.85-13.44-57.19-45.33-58.78-83.66-.97-23.48,1.84-49.75,19.63-67.57l263.35-263.81c42.54-25.33,91.61-21.53,124.82,12.9,19.14,15.66,21.35,30.83,29.84,48.15v44.59Z"/>
        <circle class="cls-1" cx="650.77" cy="211.28" r="99.9"/>
      </g>
    </g>
  </g>
</svg>